<?xml version="1.0" encoding="UTF-8"?>
<svg width="320px" height="200px" viewBox="0 0 320 200" version="1.1" xmlns="http://www.w3.org/2000/svg" xmlns:xlink="http://www.w3.org/1999/xlink">
    <title>形状结合备份-2</title>
    <g id="页面-1" stroke="none" stroke-width="1" fill="none" fill-rule="evenodd">
        <path d="M273.07777,29.5959903 C306.437178,48.020691 327.223291,85.3543218 317.668739,130.770224 C309.531578,169.44879 271.569053,200 227.983896,199.943663 C184.39874,199.887326 92.1974052,200 68.0585887,200 C43.9197721,200 0,180.06438 0,131.992211 C0,88.9105973 41.3684017,53.8759557 84.3205147,65.4756707 C84.9282188,65.6397883 85.9550398,66.526202 85.8292315,66.9302524 C85.7034232,67.3343028 85.6446156,68.1192984 84.3205147,68.3848341 C52.1748963,74.8313315 38.3884648,95.5370246 33.862314,117.67899 C29.1485668,140.738677 45.5055154,161.90546 45.5967794,162.28616 C45.6880432,162.66686 46.6444993,163.094261 47.2731313,163.094261 C47.9017636,163.094261 48.8969183,162.178546 48.9494835,161.760895 C50.3774865,150.414882 72.0831438,113.961726 114.205809,113.961726 C130.920594,113.961726 147.637947,118.397036 164.769073,135.422292 L165.288325,135.94207 C182.600978,153.39705 199.604377,157.599175 211.555645,157.599175 C236.700928,157.599175 280.956625,140.144195 280.956625,90.8500394 C280.956625,52.3844361 249.776475,22.3230818 209.711658,24.1009039 C208.123997,24.1713542 207.86767,22.6867274 207.86767,22.3230818 C207.86767,21.9594366 207.616217,21.1109305 209.711658,20.54526 C228.613736,15.4425846 253.288962,18.6664539 273.07777,29.5959903 Z M116.637912,1.62575077 C169.404829,-8.86787122 208.480645,33.4451211 216.470588,70.8498063 C216.470588,71.1883103 216.008874,72.2976454 215.553096,72.5046116 C215.097317,72.7115781 213.807267,73.0923814 213.18306,71.8653183 C198.637578,43.2718969 166.907972,22.4437429 128.955742,25.9980343 C103.654255,28.3675619 82.4587109,41.5692158 65.3691103,65.6029953 C63.5935673,65.3773261 60.5418527,65.6029953 56.2139671,66.2800033 C49.722138,67.295515 48.5569381,67.9725229 47.0588235,68.6488698 C47.0588235,61.7102 63.8709957,12.1193728 116.637912,1.62575077 Z" id="形状结合备份-2" fill="#467EDE" fill-rule="nonzero"></path>
    </g>
</svg>